<svg xmlns="http://www.w3.org/2000/svg" width="1400" height="900" viewBox="0 0 1400 900">
<rect width="100%" height="100%" fill="#ffffff"/>
<style>text { font-family: "Arial", "Helvetica", sans-serif; } .title { font-weight: 700; } .question { font-style: italic; }</style>
<text x="40.00" y="48.00" text-anchor="start" font-size="26" fill="#111827">MAC Drop Rate Across Strategy and Load</text>
<text x="40.00" y="82.00" text-anchor="start" font-size="16" fill="#6b7280">How quickly does contention translate into normalized packet loss as offered load grows?</text>
<text x="745.00" y="113.00" text-anchor="middle" font-size="14" fill="#6b7280">MAC drops / app TX</text><text x="138.00" y="214.50" text-anchor="end" font-size="13" fill="#6b7280">DCF</text><rect x="151.00" y="146.00" width="394.67" height="129.00" fill="#e1e9f2"/><text x="348.33" y="214.50" text-anchor="middle" font-size="14" fill="#111827">0.187</text><rect x="547.67" y="146.00" width="394.67" height="129.00" fill="#c1ccd4"/><text x="745.00" y="214.50" text-anchor="middle" font-size="14" fill="#111827">0.605</text><rect x="944.33" y="146.00" width="394.67" height="129.00" fill="#909ea6"/><text x="1141.67" y="214.50" text-anchor="middle" font-size="14" fill="#111827">1.255</text><text x="138.00" y="345.50" text-anchor="end" font-size="13" fill="#6b7280">EDCA</text><rect x="151.00" y="277.00" width="394.67" height="129.00" fill="#e0e8f1"/><text x="348.33" y="345.50" text-anchor="middle" font-size="14" fill="#111827">0.197</text><rect x="547.67" y="277.00" width="394.67" height="129.00" fill="#b9c4cc"/><text x="745.00" y="345.50" text-anchor="middle" font-size="14" fill="#111827">0.713</text><rect x="944.33" y="277.00" width="394.67" height="129.00" fill="#7b8b93"/><text x="1141.67" y="345.50" text-anchor="middle" font-size="14" fill="#111827">1.520</text><text x="138.00" y="476.50" text-anchor="end" font-size="13" fill="#6b7280">Stable</text><rect x="151.00" y="408.00" width="394.67" height="129.00" fill="#d7e0e9"/><text x="348.33" y="476.50" text-anchor="middle" font-size="14" fill="#111827">0.312</text><rect x="547.67" y="408.00" width="394.67" height="129.00" fill="#bac5ce"/><text x="745.00" y="476.50" text-anchor="middle" font-size="14" fill="#111827">0.692</text><rect x="944.33" y="408.00" width="394.67" height="129.00" fill="#6f8087"/><text x="1141.67" y="476.50" text-anchor="middle" font-size="14" fill="#111827">1.683</text><text x="138.00" y="607.50" text-anchor="end" font-size="13" fill="#6b7280">Guarded</text><rect x="151.00" y="539.00" width="394.67" height="129.00" fill="#c3ced6"/><text x="348.33" y="607.50" text-anchor="middle" font-size="14" fill="#111827">0.576</text><rect x="547.67" y="539.00" width="394.67" height="129.00" fill="#c2cdd5"/><text x="745.00" y="607.50" text-anchor="middle" font-size="14" fill="#111827">0.591</text><rect x="944.33" y="539.00" width="394.67" height="129.00" fill="#788890"/><text x="1141.67" y="607.50" text-anchor="middle" font-size="14" fill="#111827">1.562</text><text x="138.00" y="738.50" text-anchor="end" font-size="13" fill="#6b7280">Emergency</text><rect x="151.00" y="670.00" width="394.67" height="129.00" fill="#dbe4ec"/><text x="348.33" y="738.50" text-anchor="middle" font-size="14" fill="#111827">0.260</text><rect x="547.67" y="670.00" width="394.67" height="129.00" fill="#b2bec6"/><text x="745.00" y="738.50" text-anchor="middle" font-size="14" fill="#111827">0.804</text><rect x="944.33" y="670.00" width="394.67" height="129.00" fill="#919fa6"/><text x="1141.67" y="738.50" text-anchor="middle" font-size="14" fill="#111827">1.242</text><text x="348.33" y="828.00" text-anchor="middle" font-size="13" fill="#6b7280">low</text><text x="745.00" y="828.00" text-anchor="middle" font-size="13" fill="#6b7280">medium</text><text x="1141.67" y="828.00" text-anchor="middle" font-size="13" fill="#6b7280">high</text>
</svg>
