<svg xmlns="http://www.w3.org/2000/svg" width="252" height="200" viewBox="0 0 252 200">
<rect width="100%" height="100%" fill="#ffffff"/>
<style>text { font-family: "Times New Roman", Times, serif; }</style>
<text x="34.00" y="24.40" text-anchor="end" font-size="8" fill="#6b7280">DCF</text><rect x="41.00" y="5.00" width="67.33" height="32.80" fill="#edf5fe"/><text x="74.67" y="24.40" text-anchor="middle" font-size="8" fill="#111827">0.002</text><rect x="110.33" y="5.00" width="67.33" height="32.80" fill="#e9f1f9"/><text x="144.00" y="24.40" text-anchor="middle" font-size="8" fill="#111827">0.006</text><rect x="179.67" y="5.00" width="67.33" height="32.80" fill="#d3dce5"/><text x="213.33" y="24.40" text-anchor="middle" font-size="8" fill="#111827">0.029</text><text x="34.00" y="59.20" text-anchor="end" font-size="8" fill="#6b7280">EDCA</text><rect x="41.00" y="39.80" width="67.33" height="32.80" fill="#edf5fe"/><text x="74.67" y="59.20" text-anchor="middle" font-size="8" fill="#111827">0.002</text><rect x="110.33" y="39.80" width="67.33" height="32.80" fill="#e9f1f9"/><text x="144.00" y="59.20" text-anchor="middle" font-size="8" fill="#111827">0.006</text><rect x="179.67" y="39.80" width="67.33" height="32.80" fill="#b6c1c9"/><text x="213.33" y="59.20" text-anchor="middle" font-size="8" fill="#111827">0.058</text><text x="34.00" y="94.00" text-anchor="end" font-size="8" fill="#6b7280">Stable</text><rect x="41.00" y="74.60" width="67.33" height="32.80" fill="#eaf1fa"/><text x="74.67" y="94.00" text-anchor="middle" font-size="8" fill="#111827">0.005</text><rect x="110.33" y="74.60" width="67.33" height="32.80" fill="#d3dde5"/><text x="144.00" y="94.00" text-anchor="middle" font-size="8" fill="#111827">0.028</text><rect x="179.67" y="74.60" width="67.33" height="32.80" fill="#a6b3ba"/><text x="213.33" y="94.00" text-anchor="middle" font-size="8" fill="#111827">0.075</text><text x="34.00" y="128.80" text-anchor="end" font-size="8" fill="#6b7280">Guarded</text><rect x="41.00" y="109.40" width="67.33" height="32.80" fill="#eef5fe"/><text x="74.67" y="128.80" text-anchor="middle" font-size="8" fill="#111827">0.001</text><rect x="110.33" y="109.40" width="67.33" height="32.80" fill="#e6eef7"/><text x="144.00" y="128.80" text-anchor="middle" font-size="8" fill="#111827">0.009</text><rect x="179.67" y="109.40" width="67.33" height="32.80" fill="#abb7bf"/><text x="213.33" y="128.80" text-anchor="middle" font-size="8" fill="#111827">0.070</text><text x="34.00" y="163.60" text-anchor="end" font-size="8" fill="#6b7280">Emergency</text><rect x="41.00" y="144.20" width="67.33" height="32.80" fill="#d2dce4"/><text x="74.67" y="163.60" text-anchor="middle" font-size="8" fill="#111827">0.029</text><rect x="110.33" y="144.20" width="67.33" height="32.80" fill="#afbbc3"/><text x="144.00" y="163.60" text-anchor="middle" font-size="8" fill="#111827">0.065</text><rect x="179.67" y="144.20" width="67.33" height="32.80" fill="#6f8087"/><text x="213.33" y="163.60" text-anchor="middle" font-size="8" fill="#111827">0.131</text><text x="74.67" y="192.00" text-anchor="middle" font-size="8" fill="#6b7280">low</text><text x="144.00" y="192.00" text-anchor="middle" font-size="8" fill="#6b7280">med</text><text x="213.33" y="192.00" text-anchor="middle" font-size="8" fill="#6b7280">high</text>
</svg>
